<svg width="44" height="57" viewBox="0 0 44 57" fill="none" xmlns="http://www.w3.org/2000/svg">
<path d="M27.1362 30.3333C24.7481 30.3333 22.8053 28.3904 22.8053 26.0024V20.9915C22.8053 18.6035 24.7481 16.6605 27.1362 16.6605C29.5242 16.6605 31.4671 18.6033 31.4671 20.9915V26.0024C31.4671 28.3904 29.5242 30.3333 27.1362 30.3333ZM27.1362 19.0557C26.0687 19.0557 25.2005 19.9241 25.2005 20.9915V26.0024C25.2005 27.0697 26.0689 27.9381 27.1362 27.9381C28.2035 27.9381 29.0719 27.0697 29.0719 26.0024V20.9915C29.0719 19.9241 28.2036 19.0557 27.1362 19.0557ZM4.66024 30.3333C2.27222 30.3333 0.329346 28.3904 0.329346 26.0024V20.9915C0.329346 18.6035 2.27222 16.6605 4.66024 16.6605C7.04827 16.6605 8.99114 18.6033 8.99114 20.9915V26.0024C8.99114 28.3904 7.04839 30.3333 4.66024 30.3333ZM4.66024 19.0557C3.59282 19.0557 2.72456 19.9241 2.72456 20.9915V26.0024C2.72456 27.0697 3.59282 27.9381 4.66024 27.9381C5.72767 27.9381 6.59593 27.0697 6.59593 26.0024V20.9915C6.59593 19.9241 5.72767 19.0557 4.66024 19.0557ZM27.1362 48.497C24.7481 48.497 22.8053 50.4399 22.8053 52.8279V56.9192C23.6023 56.978 24.4013 57.0047 25.2005 56.9993V52.8279C25.2005 51.7606 26.0689 50.8922 27.1362 50.8922C28.2035 50.8922 29.0719 51.7606 29.0719 52.8279V56.7196C29.876 56.6081 30.6751 56.463 31.4671 56.2849V52.8279C31.4671 50.4399 29.5242 48.497 27.1362 48.497ZM15.5995 46.1018C13.2115 46.1018 11.2686 44.1589 11.2686 41.7709V36.76C11.2686 34.372 13.2115 32.429 15.5995 32.429C17.9875 32.429 19.9304 34.3718 19.9304 36.76V41.7709C19.9304 44.1589 17.9875 46.1018 15.5995 46.1018ZM15.5995 34.8242C14.5321 34.8242 13.6638 35.6926 13.6638 36.76V41.7709C13.6638 42.8382 14.5321 43.7066 15.5995 43.7066C16.667 43.7066 17.5352 42.8382 17.5352 41.7709V36.76C17.5352 35.6926 16.6668 34.8242 15.5995 34.8242ZM27.1362 14.2087C24.7481 14.2087 22.8053 12.2659 22.8053 9.87772V4.86682C22.8053 2.47879 24.7481 0.535919 27.1362 0.535919C29.5242 0.535919 31.4671 2.47879 31.4671 4.86682V9.87772C31.4671 12.2659 29.5242 14.2087 27.1362 14.2087ZM27.1362 2.93113C26.0687 2.93113 25.2005 3.79951 25.2005 4.86682V9.87772C25.2005 10.9451 26.0689 11.8135 27.1362 11.8135C28.2035 11.8135 29.0719 10.9451 29.0719 9.87772V4.86682C29.0719 3.79951 28.2036 2.93113 27.1362 2.93113ZM34.7813 4.86682V9.87772C34.7813 12.2657 36.7242 14.2087 39.1122 14.2087C41.5002 14.2087 43.4431 12.2659 43.4431 9.87772V4.86682L43.4429 4.837C41.5368 3.29407 39.4449 1.99613 37.2161 0.973524C35.7757 1.67784 34.7813 3.15831 34.7813 4.86682ZM41.0479 4.86682V9.87772C41.0479 10.9451 40.1796 11.8135 39.1122 11.8135C38.0448 11.8135 37.1765 10.9451 37.1765 9.87772V4.86682C37.1765 3.79951 38.0448 2.93113 39.1122 2.93113C40.1796 2.93113 41.0479 3.79951 41.0479 4.86682Z" fill="#5AFFB7"/>
</svg>
